<?xml version="1.0" encoding="utf-8" standalone="no"?>
<!DOCTYPE svg PUBLIC "-//W3C//DTD SVG 1.1//EN"
  "http://www.w3.org/Graphics/SVG/1.1/DTD/svg11.dtd">
<svg xmlns:xlink="http://www.w3.org/1999/xlink" width="652.99pt" height="381.189219pt" viewBox="0 0 652.99 381.189219" xmlns="http://www.w3.org/2000/svg" version="1.1">
 <metadata>
  <rdf:RDF xmlns:dc="http://purl.org/dc/elements/1.1/" xmlns:cc="http://creativecommons.org/ns#" xmlns:rdf="http://www.w3.org/1999/02/22-rdf-syntax-ns#">
   <cc:Work>
    <dc:type rdf:resource="http://purl.org/dc/dcmitype/StillImage"/>
    <dc:date>2023-12-04T16:27:12.419536</dc:date>
    <dc:format>image/svg+xml</dc:format>
    <dc:creator>
     <cc:Agent>
      <dc:title>Matplotlib v3.8.2, https://matplotlib.org/</dc:title>
     </cc:Agent>
    </dc:creator>
   </cc:Work>
  </rdf:RDF>
 </metadata>
 <defs>
  <style type="text/css">*{stroke-linejoin: round; stroke-linecap: butt}</style>
 </defs>
 <g id="figure_1">
  <g id="patch_1">
   <path d="M 0 381.189219 
L 652.99 381.189219 
L 652.99 0 
L 0 0 
z
" style="fill: #ffffff"/>
  </g>
  <g id="axes_1">
   <g id="patch_2">
    <path d="M 31.99 354.429375 
L 645.79 354.429375 
L 645.79 21.789375 
L 31.99 21.789375 
z
" style="fill: #eaeaf2"/>
   </g>
   <g id="matplotlib.axis_1">
    <g id="xtick_1">
     <g id="line2d_1">
      <path d="M 119.251702 354.429375 
L 119.251702 21.789375 
" clip-path="url(#p231ca71d19)" style="fill: none; stroke: #ffffff; stroke-linecap: round"/>
     </g>
     <g id="text_1">
      <!-- −2 -->
      <g style="fill: #262626" transform="translate(112.980843 371.802969) scale(0.11 -0.11)">
       <defs>
        <path id="ArialMT-2212" d="M 3381 1997 
L 356 1997 
L 356 2522 
L 3381 2522 
L 3381 1997 
z
" transform="scale(0.015625)"/>
        <path id="ArialMT-32" d="M 3222 541 
L 3222 0 
L 194 0 
Q 188 203 259 391 
Q 375 700 629 1000 
Q 884 1300 1366 1694 
Q 2113 2306 2375 2664 
Q 2638 3022 2638 3341 
Q 2638 3675 2398 3904 
Q 2159 4134 1775 4134 
Q 1369 4134 1125 3890 
Q 881 3647 878 3216 
L 300 3275 
Q 359 3922 746 4261 
Q 1134 4600 1788 4600 
Q 2447 4600 2831 4234 
Q 3216 3869 3216 3328 
Q 3216 3053 3103 2787 
Q 2991 2522 2730 2228 
Q 2469 1934 1863 1422 
Q 1356 997 1212 845 
Q 1069 694 975 541 
L 3222 541 
z
" transform="scale(0.015625)"/>
       </defs>
       <use xlink:href="#ArialMT-2212"/>
       <use xlink:href="#ArialMT-32" x="58.398438"/>
      </g>
     </g>
    </g>
    <g id="xtick_2">
     <g id="line2d_2">
      <path d="M 237.975106 354.429375 
L 237.975106 21.789375 
" clip-path="url(#p231ca71d19)" style="fill: none; stroke: #ffffff; stroke-linecap: round"/>
     </g>
     <g id="text_2">
      <!-- −1 -->
      <g style="fill: #262626" transform="translate(231.704247 371.802969) scale(0.11 -0.11)">
       <defs>
        <path id="ArialMT-31" d="M 2384 0 
L 1822 0 
L 1822 3584 
Q 1619 3391 1289 3197 
Q 959 3003 697 2906 
L 697 3450 
Q 1169 3672 1522 3987 
Q 1875 4303 2022 4600 
L 2384 4600 
L 2384 0 
z
" transform="scale(0.015625)"/>
       </defs>
       <use xlink:href="#ArialMT-2212"/>
       <use xlink:href="#ArialMT-31" x="58.398438"/>
      </g>
     </g>
    </g>
    <g id="xtick_3">
     <g id="line2d_3">
      <path d="M 356.698511 354.429375 
L 356.698511 21.789375 
" clip-path="url(#p231ca71d19)" style="fill: none; stroke: #ffffff; stroke-linecap: round"/>
     </g>
     <g id="text_3">
      <!-- 0 -->
      <g style="fill: #262626" transform="translate(353.639995 371.802969) scale(0.11 -0.11)">
       <defs>
        <path id="ArialMT-30" d="M 266 2259 
Q 266 3072 433 3567 
Q 600 4063 929 4331 
Q 1259 4600 1759 4600 
Q 2128 4600 2406 4451 
Q 2684 4303 2865 4023 
Q 3047 3744 3150 3342 
Q 3253 2941 3253 2259 
Q 3253 1453 3087 958 
Q 2922 463 2592 192 
Q 2263 -78 1759 -78 
Q 1097 -78 719 397 
Q 266 969 266 2259 
z
M 844 2259 
Q 844 1131 1108 757 
Q 1372 384 1759 384 
Q 2147 384 2411 759 
Q 2675 1134 2675 2259 
Q 2675 3391 2411 3762 
Q 2147 4134 1753 4134 
Q 1366 4134 1134 3806 
Q 844 3388 844 2259 
z
" transform="scale(0.015625)"/>
       </defs>
       <use xlink:href="#ArialMT-30"/>
      </g>
     </g>
    </g>
    <g id="xtick_4">
     <g id="line2d_4">
      <path d="M 475.421915 354.429375 
L 475.421915 21.789375 
" clip-path="url(#p231ca71d19)" style="fill: none; stroke: #ffffff; stroke-linecap: round"/>
     </g>
     <g id="text_4">
      <!-- 1 -->
      <g style="fill: #262626" transform="translate(472.363399 371.802969) scale(0.11 -0.11)">
       <use xlink:href="#ArialMT-31"/>
      </g>
     </g>
    </g>
    <g id="xtick_5">
     <g id="line2d_5">
      <path d="M 594.145319 354.429375 
L 594.145319 21.789375 
" clip-path="url(#p231ca71d19)" style="fill: none; stroke: #ffffff; stroke-linecap: round"/>
     </g>
     <g id="text_5">
      <!-- 2 -->
      <g style="fill: #262626" transform="translate(591.086804 371.802969) scale(0.11 -0.11)">
       <use xlink:href="#ArialMT-32"/>
      </g>
     </g>
    </g>
   </g>
   <g id="matplotlib.axis_2">
    <g id="ytick_1">
     <g id="line2d_6">
      <path d="M 31.99 339.309375 
L 645.79 339.309375 
" clip-path="url(#p231ca71d19)" style="fill: none; stroke: #ffffff; stroke-linecap: round"/>
     </g>
     <g id="text_6">
      <!-- 0.0 -->
      <g style="fill: #262626" transform="translate(7.2 343.246172) scale(0.11 -0.11)">
       <defs>
        <path id="ArialMT-2e" d="M 581 0 
L 581 641 
L 1222 641 
L 1222 0 
L 581 0 
z
" transform="scale(0.015625)"/>
       </defs>
       <use xlink:href="#ArialMT-30"/>
       <use xlink:href="#ArialMT-2e" x="55.615234"/>
       <use xlink:href="#ArialMT-30" x="83.398438"/>
      </g>
     </g>
    </g>
    <g id="ytick_2">
     <g id="line2d_7">
      <path d="M 31.99 293.77107 
L 645.79 293.77107 
" clip-path="url(#p231ca71d19)" style="fill: none; stroke: #ffffff; stroke-linecap: round"/>
     </g>
     <g id="text_7">
      <!-- 0.2 -->
      <g style="fill: #262626" transform="translate(7.2 297.707867) scale(0.11 -0.11)">
       <use xlink:href="#ArialMT-30"/>
       <use xlink:href="#ArialMT-2e" x="55.615234"/>
       <use xlink:href="#ArialMT-32" x="83.398438"/>
      </g>
     </g>
    </g>
    <g id="ytick_3">
     <g id="line2d_8">
      <path d="M 31.99 248.232765 
L 645.79 248.232765 
" clip-path="url(#p231ca71d19)" style="fill: none; stroke: #ffffff; stroke-linecap: round"/>
     </g>
     <g id="text_8">
      <!-- 0.4 -->
      <g style="fill: #262626" transform="translate(7.2 252.169562) scale(0.11 -0.11)">
       <defs>
        <path id="ArialMT-34" d="M 2069 0 
L 2069 1097 
L 81 1097 
L 81 1613 
L 2172 4581 
L 2631 4581 
L 2631 1613 
L 3250 1613 
L 3250 1097 
L 2631 1097 
L 2631 0 
L 2069 0 
z
M 2069 1613 
L 2069 3678 
L 634 1613 
L 2069 1613 
z
" transform="scale(0.015625)"/>
       </defs>
       <use xlink:href="#ArialMT-30"/>
       <use xlink:href="#ArialMT-2e" x="55.615234"/>
       <use xlink:href="#ArialMT-34" x="83.398438"/>
      </g>
     </g>
    </g>
    <g id="ytick_4">
     <g id="line2d_9">
      <path d="M 31.99 202.69446 
L 645.79 202.69446 
" clip-path="url(#p231ca71d19)" style="fill: none; stroke: #ffffff; stroke-linecap: round"/>
     </g>
     <g id="text_9">
      <!-- 0.6 -->
      <g style="fill: #262626" transform="translate(7.2 206.631257) scale(0.11 -0.11)">
       <defs>
        <path id="ArialMT-36" d="M 3184 3459 
L 2625 3416 
Q 2550 3747 2413 3897 
Q 2184 4138 1850 4138 
Q 1581 4138 1378 3988 
Q 1113 3794 959 3422 
Q 806 3050 800 2363 
Q 1003 2672 1297 2822 
Q 1591 2972 1913 2972 
Q 2475 2972 2870 2558 
Q 3266 2144 3266 1488 
Q 3266 1056 3080 686 
Q 2894 316 2569 119 
Q 2244 -78 1831 -78 
Q 1128 -78 684 439 
Q 241 956 241 2144 
Q 241 3472 731 4075 
Q 1159 4600 1884 4600 
Q 2425 4600 2770 4297 
Q 3116 3994 3184 3459 
z
M 888 1484 
Q 888 1194 1011 928 
Q 1134 663 1356 523 
Q 1578 384 1822 384 
Q 2178 384 2434 671 
Q 2691 959 2691 1453 
Q 2691 1928 2437 2201 
Q 2184 2475 1800 2475 
Q 1419 2475 1153 2201 
Q 888 1928 888 1484 
z
" transform="scale(0.015625)"/>
       </defs>
       <use xlink:href="#ArialMT-30"/>
       <use xlink:href="#ArialMT-2e" x="55.615234"/>
       <use xlink:href="#ArialMT-36" x="83.398438"/>
      </g>
     </g>
    </g>
    <g id="ytick_5">
     <g id="line2d_10">
      <path d="M 31.99 157.156155 
L 645.79 157.156155 
" clip-path="url(#p231ca71d19)" style="fill: none; stroke: #ffffff; stroke-linecap: round"/>
     </g>
     <g id="text_10">
      <!-- 0.8 -->
      <g style="fill: #262626" transform="translate(7.2 161.092952) scale(0.11 -0.11)">
       <defs>
        <path id="ArialMT-38" d="M 1131 2484 
Q 781 2613 612 2850 
Q 444 3088 444 3419 
Q 444 3919 803 4259 
Q 1163 4600 1759 4600 
Q 2359 4600 2725 4251 
Q 3091 3903 3091 3403 
Q 3091 3084 2923 2848 
Q 2756 2613 2416 2484 
Q 2838 2347 3058 2040 
Q 3278 1734 3278 1309 
Q 3278 722 2862 322 
Q 2447 -78 1769 -78 
Q 1091 -78 675 323 
Q 259 725 259 1325 
Q 259 1772 486 2073 
Q 713 2375 1131 2484 
z
M 1019 3438 
Q 1019 3113 1228 2906 
Q 1438 2700 1772 2700 
Q 2097 2700 2305 2904 
Q 2513 3109 2513 3406 
Q 2513 3716 2298 3927 
Q 2084 4138 1766 4138 
Q 1444 4138 1231 3931 
Q 1019 3725 1019 3438 
z
M 838 1322 
Q 838 1081 952 856 
Q 1066 631 1291 507 
Q 1516 384 1775 384 
Q 2178 384 2440 643 
Q 2703 903 2703 1303 
Q 2703 1709 2433 1975 
Q 2163 2241 1756 2241 
Q 1359 2241 1098 1978 
Q 838 1716 838 1322 
z
" transform="scale(0.015625)"/>
       </defs>
       <use xlink:href="#ArialMT-30"/>
       <use xlink:href="#ArialMT-2e" x="55.615234"/>
       <use xlink:href="#ArialMT-38" x="83.398438"/>
      </g>
     </g>
    </g>
    <g id="ytick_6">
     <g id="line2d_11">
      <path d="M 31.99 111.61785 
L 645.79 111.61785 
" clip-path="url(#p231ca71d19)" style="fill: none; stroke: #ffffff; stroke-linecap: round"/>
     </g>
     <g id="text_11">
      <!-- 1.0 -->
      <g style="fill: #262626" transform="translate(7.2 115.554647) scale(0.11 -0.11)">
       <use xlink:href="#ArialMT-31"/>
       <use xlink:href="#ArialMT-2e" x="55.615234"/>
       <use xlink:href="#ArialMT-30" x="83.398438"/>
      </g>
     </g>
    </g>
    <g id="ytick_7">
     <g id="line2d_12">
      <path d="M 31.99 66.079545 
L 645.79 66.079545 
" clip-path="url(#p231ca71d19)" style="fill: none; stroke: #ffffff; stroke-linecap: round"/>
     </g>
     <g id="text_12">
      <!-- 1.2 -->
      <g style="fill: #262626" transform="translate(7.2 70.016342) scale(0.11 -0.11)">
       <use xlink:href="#ArialMT-31"/>
       <use xlink:href="#ArialMT-2e" x="55.615234"/>
       <use xlink:href="#ArialMT-32" x="83.398438"/>
      </g>
     </g>
    </g>
   </g>
   <g id="PathCollection_1">
    <defs>
     <path id="mf4670a1ef0" d="M 0 2.236068 
C 0.593012 2.236068 1.161816 2.000462 1.581139 1.581139 
C 2.000462 1.161816 2.236068 0.593012 2.236068 0 
C 2.236068 -0.593012 2.000462 -1.161816 1.581139 -1.581139 
C 1.161816 -2.000462 0.593012 -2.236068 0 -2.236068 
C -0.593012 -2.236068 -1.161816 -2.000462 -1.581139 -1.581139 
C -2.000462 -1.161816 -2.236068 -0.593012 -2.236068 0 
C -2.236068 0.593012 -2.000462 1.161816 -1.581139 1.581139 
C -1.161816 2.000462 -0.593012 2.236068 0 2.236068 
z
" style="stroke: #ff0000"/>
    </defs>
    <g clip-path="url(#p231ca71d19)">
     <use xlink:href="#mf4670a1ef0" x="428.451081" y="339.309375" style="fill: #ff0000; stroke: #ff0000"/>
     <use xlink:href="#mf4670a1ef0" x="530.713084" y="339.309375" style="fill: #ff0000; stroke: #ff0000"/>
     <use xlink:href="#mf4670a1ef0" x="404.697915" y="339.309375" style="fill: #ff0000; stroke: #ff0000"/>
     <use xlink:href="#mf4670a1ef0" x="511.836376" y="339.309375" style="fill: #ff0000; stroke: #ff0000"/>
     <use xlink:href="#mf4670a1ef0" x="499.464942" y="339.309375" style="fill: #ff0000; stroke: #ff0000"/>
     <use xlink:href="#mf4670a1ef0" x="476.555351" y="339.309375" style="fill: #ff0000; stroke: #ff0000"/>
     <use xlink:href="#mf4670a1ef0" x="594.893325" y="339.309375" style="fill: #ff0000; stroke: #ff0000"/>
     <use xlink:href="#mf4670a1ef0" x="548.571312" y="339.309375" style="fill: #ff0000; stroke: #ff0000"/>
     <use xlink:href="#mf4670a1ef0" x="369.587896" y="339.309375" style="fill: #ff0000; stroke: #ff0000"/>
     <use xlink:href="#mf4670a1ef0" x="476.555351" y="339.309375" style="fill: #ff0000; stroke: #ff0000"/>
     <use xlink:href="#mf4670a1ef0" x="445.630551" y="339.309375" style="fill: #ff0000; stroke: #ff0000"/>
     <use xlink:href="#mf4670a1ef0" x="341.722538" y="339.309375" style="fill: #ff0000; stroke: #ff0000"/>
     <use xlink:href="#mf4670a1ef0" x="600.27004" y="339.309375" style="fill: #ff0000; stroke: #ff0000"/>
     <use xlink:href="#mf4670a1ef0" x="390.781129" y="339.309375" style="fill: #ff0000; stroke: #ff0000"/>
     <use xlink:href="#mf4670a1ef0" x="422.421929" y="339.309375" style="fill: #ff0000; stroke: #ff0000"/>
     <use xlink:href="#mf4670a1ef0" x="404.084709" y="339.309375" style="fill: #ff0000; stroke: #ff0000"/>
     <use xlink:href="#mf4670a1ef0" x="422.166319" y="339.309375" style="fill: #ff0000; stroke: #ff0000"/>
     <use xlink:href="#mf4670a1ef0" x="387.912386" y="339.309375" style="fill: #ff0000; stroke: #ff0000"/>
     <use xlink:href="#mf4670a1ef0" x="435.522974" y="339.309375" style="fill: #ff0000; stroke: #ff0000"/>
     <use xlink:href="#mf4670a1ef0" x="326.437775" y="339.309375" style="fill: #ff0000; stroke: #ff0000"/>
     <use xlink:href="#mf4670a1ef0" x="435.522974" y="339.309375" style="fill: #ff0000; stroke: #ff0000"/>
     <use xlink:href="#mf4670a1ef0" x="312.707883" y="339.309375" style="fill: #ff0000; stroke: #ff0000"/>
     <use xlink:href="#mf4670a1ef0" x="417.751456" y="339.309375" style="fill: #ff0000; stroke: #ff0000"/>
     <use xlink:href="#mf4670a1ef0" x="417.751456" y="339.309375" style="fill: #ff0000; stroke: #ff0000"/>
     <use xlink:href="#mf4670a1ef0" x="425.973701" y="339.309375" style="fill: #ff0000; stroke: #ff0000"/>
    </g>
   </g>
   <g id="PathCollection_2">
    <defs>
     <path id="m084be584ac" d="M 0 2.236068 
C 0.593012 2.236068 1.161816 2.000462 1.581139 1.581139 
C 2.000462 1.161816 2.236068 0.593012 2.236068 0 
C 2.236068 -0.593012 2.000462 -1.161816 1.581139 -1.581139 
C 1.161816 -2.000462 0.593012 -2.236068 0 -2.236068 
C -0.593012 -2.236068 -1.161816 -2.000462 -1.581139 -1.581139 
C -2.000462 -1.161816 -2.236068 -0.593012 -2.236068 0 
C -2.236068 0.593012 -2.000462 1.161816 -1.581139 1.581139 
C -1.161816 2.000462 -0.593012 2.236068 0 2.236068 
z
" style="stroke: #0000ff"/>
    </defs>
    <g clip-path="url(#p231ca71d19)">
     <use xlink:href="#m084be584ac" x="267.979022" y="339.309375" style="fill: #0000ff; stroke: #0000ff"/>
     <use xlink:href="#m084be584ac" x="464.40972" y="339.309375" style="fill: #0000ff; stroke: #0000ff"/>
     <use xlink:href="#m084be584ac" x="254.303289" y="339.309375" style="fill: #0000ff; stroke: #0000ff"/>
     <use xlink:href="#m084be584ac" x="382.55885" y="339.309375" style="fill: #0000ff; stroke: #0000ff"/>
     <use xlink:href="#m084be584ac" x="320.901487" y="339.309375" style="fill: #0000ff; stroke: #0000ff"/>
     <use xlink:href="#m084be584ac" x="228.038068" y="339.309375" style="fill: #0000ff; stroke: #0000ff"/>
     <use xlink:href="#m084be584ac" x="220.574286" y="339.309375" style="fill: #0000ff; stroke: #0000ff"/>
     <use xlink:href="#m084be584ac" x="220.574286" y="339.309375" style="fill: #0000ff; stroke: #0000ff"/>
     <use xlink:href="#m084be584ac" x="384.976299" y="339.309375" style="fill: #0000ff; stroke: #0000ff"/>
     <use xlink:href="#m084be584ac" x="477.871064" y="339.309375" style="fill: #0000ff; stroke: #0000ff"/>
     <use xlink:href="#m084be584ac" x="337.424763" y="339.309375" style="fill: #0000ff; stroke: #0000ff"/>
     <use xlink:href="#m084be584ac" x="342.629381" y="339.309375" style="fill: #0000ff; stroke: #0000ff"/>
     <use xlink:href="#m084be584ac" x="272.32515" y="339.309375" style="fill: #0000ff; stroke: #0000ff"/>
     <use xlink:href="#m084be584ac" x="299.537595" y="339.309375" style="fill: #0000ff; stroke: #0000ff"/>
     <use xlink:href="#m084be584ac" x="212.521889" y="339.309375" style="fill: #0000ff; stroke: #0000ff"/>
     <use xlink:href="#m084be584ac" x="244.244741" y="339.309375" style="fill: #0000ff; stroke: #0000ff"/>
     <use xlink:href="#m084be584ac" x="246.356546" y="339.309375" style="fill: #0000ff; stroke: #0000ff"/>
     <use xlink:href="#m084be584ac" x="284.023923" y="339.309375" style="fill: #0000ff; stroke: #0000ff"/>
     <use xlink:href="#m084be584ac" x="246.356546" y="339.309375" style="fill: #0000ff; stroke: #0000ff"/>
     <use xlink:href="#m084be584ac" x="301.638194" y="339.309375" style="fill: #0000ff; stroke: #0000ff"/>
     <use xlink:href="#m084be584ac" x="220.574286" y="339.309375" style="fill: #0000ff; stroke: #0000ff"/>
     <use xlink:href="#m084be584ac" x="243.814642" y="339.309375" style="fill: #0000ff; stroke: #0000ff"/>
     <use xlink:href="#m084be584ac" x="271.140216" y="339.309375" style="fill: #0000ff; stroke: #0000ff"/>
     <use xlink:href="#m084be584ac" x="275.229162" y="339.309375" style="fill: #0000ff; stroke: #0000ff"/>
     <use xlink:href="#m084be584ac" x="190.646764" y="339.309375" style="fill: #0000ff; stroke: #0000ff"/>
    </g>
   </g>
   <g id="line2d_13">
    <path d="M 261.719787 339.308247 
L 265.317466 339.307515 
L 268.915145 339.306339 
L 272.512824 339.304471 
L 276.110503 339.301534 
L 279.708182 339.296965 
L 283.305861 339.289933 
L 286.90354 339.279226 
L 290.501219 339.263096 
L 294.098897 339.239058 
L 297.696576 339.203619 
L 301.294255 339.151934 
L 304.891934 339.077368 
L 308.489613 338.970957 
L 312.087292 338.820752 
L 315.684971 338.611041 
L 319.28265 338.321457 
L 322.880329 337.925974 
L 326.478008 337.391836 
L 330.075687 336.678447 
L 333.673366 335.736295 
L 337.271044 334.506012 
L 340.868723 332.917668 
L 344.466402 330.890439 
L 348.064081 328.332811 
L 351.66176 325.143463 
L 355.259439 321.213003 
L 358.857118 316.42667 
L 362.454797 310.668116 
L 366.052476 303.824302 
L 369.650155 295.791449 
L 373.247834 286.481937 
L 376.845513 275.831879 
L 380.443191 263.809037 
L 384.04087 250.420608 
L 387.638549 235.72035 
L 391.236228 219.814443 
L 394.833907 202.865483 
L 398.431586 185.09403 
L 402.029265 166.777256 
L 405.626944 148.244349 
L 409.224623 129.868562 
L 412.822302 112.056017 
L 416.419981 95.231632 
L 420.01766 79.822782 
L 423.615338 66.241541 
L 427.213017 54.866512 
L 430.810696 46.025346 
L 434.408375 39.979088 
L 438.006054 36.909375 
L 441.603733 36.909375 
L 445.201412 39.979088 
L 448.799091 46.025346 
L 452.39677 54.866512 
L 455.994449 66.241541 
L 459.592128 79.822782 
L 463.189807 95.231632 
L 466.787485 112.056017 
L 470.385164 129.868562 
L 473.982843 148.244349 
L 477.580522 166.777256 
L 481.178201 185.09403 
L 484.77588 202.865483 
L 488.373559 219.814443 
L 491.971238 235.72035 
L 495.568917 250.420608 
L 499.166596 263.809037 
L 502.764275 275.831879 
L 506.361954 286.481937 
L 509.959632 295.791449 
L 513.557311 303.824302 
L 517.15499 310.668116 
L 520.752669 316.42667 
L 524.350348 321.213003 
L 527.948027 325.143463 
L 531.545706 328.332811 
L 535.143385 330.890439 
L 538.741064 332.917668 
L 542.338743 334.506012 
L 545.936422 335.736295 
L 549.534101 336.678447 
L 553.131779 337.391836 
L 556.729458 337.925974 
L 560.327137 338.321457 
L 563.924816 338.611041 
L 567.522495 338.820752 
L 571.120174 338.970957 
L 574.717853 339.077368 
L 578.315532 339.151934 
L 581.913211 339.203619 
L 585.51089 339.239058 
L 589.108569 339.263096 
L 592.706248 339.279226 
L 596.303926 339.289933 
L 599.901605 339.296965 
L 603.499284 339.301534 
L 607.096963 339.304471 
L 610.694642 339.306339 
L 614.292321 339.307515 
L 617.89 339.308247 
" clip-path="url(#p231ca71d19)" style="fill: none; stroke: #ff0000; stroke-opacity: 0.6; stroke-width: 1.5; stroke-linecap: round"/>
   </g>
   <g id="line2d_14">
    <path d="M 59.89 339.308529 
L 64.686905 339.30798 
L 69.48381 339.307098 
L 74.280716 339.305697 
L 79.077621 339.303494 
L 83.874526 339.300068 
L 88.671431 339.294794 
L 93.468337 339.286763 
L 98.265242 339.274666 
L 103.062147 339.256637 
L 107.859052 339.230058 
L 112.655957 339.191294 
L 117.452863 339.13537 
L 122.249768 339.055562 
L 127.046673 338.942908 
L 131.843578 338.785625 
L 136.640484 338.568436 
L 141.437389 338.271824 
L 146.234294 337.871221 
L 151.031199 337.336179 
L 155.828104 336.629565 
L 160.62501 335.706853 
L 165.421915 334.515595 
L 170.21882 332.995173 
L 175.015725 331.076952 
L 179.812631 328.684941 
L 184.609536 325.737096 
L 189.406441 322.147346 
L 194.203346 317.828431 
L 199.000251 312.69557 
L 203.797157 306.67093 
L 208.594062 299.688796 
L 213.390967 291.701253 
L 218.187872 282.684121 
L 222.984778 272.642799 
L 227.781683 261.617606 
L 232.578588 249.688176 
L 237.375493 236.976456 
L 242.172398 223.647866 
L 246.969304 209.910286 
L 251.766209 196.010605 
L 256.563114 182.228765 
L 261.360019 168.869356 
L 266.156925 156.251068 
L 270.95383 144.69443 
L 275.750735 134.5085 
L 280.54764 125.977228 
L 285.344545 119.346353 
L 290.141451 114.811659 
L 294.938356 112.509375 
L 299.735261 112.509375 
L 304.532166 114.811659 
L 309.329072 119.346353 
L 314.125977 125.977228 
L 318.922882 134.5085 
L 323.719787 144.69443 
L 328.516692 156.251068 
L 333.313598 168.869356 
L 338.110503 182.228765 
L 342.907408 196.010605 
L 347.704313 209.910286 
L 352.501219 223.647866 
L 357.298124 236.976456 
L 362.095029 249.688176 
L 366.891934 261.617606 
L 371.688839 272.642799 
L 376.485745 282.684121 
L 381.28265 291.701253 
L 386.079555 299.688796 
L 390.87646 306.67093 
L 395.673366 312.69557 
L 400.470271 317.828431 
L 405.267176 322.147346 
L 410.064081 325.737096 
L 414.860986 328.684941 
L 419.657892 331.076952 
L 424.454797 332.995173 
L 429.251702 334.515595 
L 434.048607 335.706853 
L 438.845513 336.629565 
L 443.642418 337.336179 
L 448.439323 337.871221 
L 453.236228 338.271824 
L 458.033133 338.568436 
L 462.830039 338.785625 
L 467.626944 338.942908 
L 472.423849 339.055562 
L 477.220754 339.13537 
L 482.01766 339.191294 
L 486.814565 339.230058 
L 491.61147 339.256637 
L 496.408375 339.274666 
L 501.20528 339.286763 
L 506.002186 339.294794 
L 510.799091 339.300068 
L 515.595996 339.303494 
L 520.392901 339.305697 
L 525.189807 339.307098 
L 529.986712 339.30798 
L 534.783617 339.308529 
" clip-path="url(#p231ca71d19)" style="fill: none; stroke: #0000ff; stroke-opacity: 0.6; stroke-width: 1.5; stroke-linecap: round"/>
   </g>
   <g id="line2d_15">
    <path d="M 59.89 339.23387 
L 71.277755 339.208698 
L 82.66551 339.175138 
L 94.053265 339.1304 
L 105.44102 339.070768 
L 116.828776 338.991295 
L 128.216531 338.885401 
L 139.604286 338.744341 
L 150.992041 338.556504 
L 162.379796 338.3065 
L 173.767551 337.973966 
L 185.155306 337.532035 
L 196.543061 336.945382 
L 207.930816 336.167783 
L 219.318571 335.139138 
L 230.706327 333.781977 
L 242.094082 331.99759 
L 253.481837 329.66217 
L 264.869592 326.623745 
L 276.257347 322.701246 
L 287.645102 317.687848 
L 299.032857 311.361458 
L 310.420612 303.505603 
L 321.808367 293.943084 
L 333.196122 282.581626 
L 344.583878 269.464808 
L 355.971633 254.814027 
L 367.359388 239.042201 
L 378.747143 222.723302 
L 390.134898 206.516305 
L 401.522653 191.06246 
L 412.910408 176.888255 
L 424.298163 164.343524 
L 435.685918 153.586837 
L 447.073673 144.610835 
L 458.461429 137.289199 
L 469.849184 131.427034 
L 481.236939 126.802899 
L 492.624694 123.198063 
L 504.012449 120.413573 
L 515.400204 118.277986 
L 526.787959 116.648998 
L 538.175714 115.411602 
L 549.563469 114.474636 
L 560.951224 113.766856 
L 572.33898 113.233172 
L 583.726735 112.83131 
L 595.11449 112.529021 
L 606.502245 112.301808 
L 617.89 112.131126 
" clip-path="url(#p231ca71d19)" style="fill: none; stroke: #ffa500; stroke-width: 1.5; stroke-linecap: round"/>
   </g>
   <g id="line2d_16">
    <path d="M 31.99 225.463612 
L 645.79 225.463612 
" clip-path="url(#p231ca71d19)" style="fill: none; stroke-dasharray: 5.55,2.4; stroke-dashoffset: 0; stroke: #000000; stroke-width: 1.5"/>
   </g>
   <g id="line2d_17">
    <path d="M 376.842156 354.429375 
L 376.842156 21.789375 
" clip-path="url(#p231ca71d19)" style="fill: none; stroke-dasharray: 5.55,2.4; stroke-dashoffset: 0; stroke: #000000; stroke-width: 1.5"/>
   </g>
   <g id="patch_3">
    <path d="M 31.99 354.429375 
L 31.99 21.789375 
" style="fill: none; stroke: #ffffff; stroke-width: 1.25; stroke-linejoin: miter; stroke-linecap: square"/>
   </g>
   <g id="patch_4">
    <path d="M 645.79 354.429375 
L 645.79 21.789375 
" style="fill: none; stroke: #ffffff; stroke-width: 1.25; stroke-linejoin: miter; stroke-linecap: square"/>
   </g>
   <g id="patch_5">
    <path d="M 31.99 354.429375 
L 645.79 354.429375 
" style="fill: none; stroke: #ffffff; stroke-width: 1.25; stroke-linejoin: miter; stroke-linecap: square"/>
   </g>
   <g id="patch_6">
    <path d="M 31.99 21.789375 
L 645.79 21.789375 
" style="fill: none; stroke: #ffffff; stroke-width: 1.25; stroke-linejoin: miter; stroke-linecap: square"/>
   </g>
   <g id="text_13">
    <!-- $P(y=1|x) &gt; 0.5$ -->
    <g style="fill: #262626" transform="translate(400.586837 362.078528) scale(0.12 -0.12)">
     <defs>
      <path id="DejaVuSans-Oblique-50" d="M 1081 4666 
L 2541 4666 
Q 3178 4666 3512 4369 
Q 3847 4072 3847 3500 
Q 3847 2731 3353 2303 
Q 2859 1875 1966 1875 
L 1172 1875 
L 806 0 
L 172 0 
L 1081 4666 
z
M 1613 4147 
L 1275 2394 
L 2069 2394 
Q 2606 2394 2893 2669 
Q 3181 2944 3181 3456 
Q 3181 3784 2986 3965 
Q 2791 4147 2438 4147 
L 1613 4147 
z
" transform="scale(0.015625)"/>
      <path id="DejaVuSans-28" d="M 1984 4856 
Q 1566 4138 1362 3434 
Q 1159 2731 1159 2009 
Q 1159 1288 1364 580 
Q 1569 -128 1984 -844 
L 1484 -844 
Q 1016 -109 783 600 
Q 550 1309 550 2009 
Q 550 2706 781 3412 
Q 1013 4119 1484 4856 
L 1984 4856 
z
" transform="scale(0.015625)"/>
      <path id="DejaVuSans-Oblique-79" d="M 1588 -325 
Q 1188 -997 936 -1164 
Q 684 -1331 294 -1331 
L -159 -1331 
L -63 -850 
L 269 -850 
Q 509 -850 678 -719 
Q 847 -588 1056 -206 
L 1234 128 
L 459 3500 
L 1069 3500 
L 1650 819 
L 3256 3500 
L 3859 3500 
L 1588 -325 
z
" transform="scale(0.015625)"/>
      <path id="DejaVuSans-3d" d="M 678 2906 
L 4684 2906 
L 4684 2381 
L 678 2381 
L 678 2906 
z
M 678 1631 
L 4684 1631 
L 4684 1100 
L 678 1100 
L 678 1631 
z
" transform="scale(0.015625)"/>
      <path id="DejaVuSans-31" d="M 794 531 
L 1825 531 
L 1825 4091 
L 703 3866 
L 703 4441 
L 1819 4666 
L 2450 4666 
L 2450 531 
L 3481 531 
L 3481 0 
L 794 0 
L 794 531 
z
" transform="scale(0.015625)"/>
      <path id="DejaVuSans-7c" d="M 1344 4891 
L 1344 -1509 
L 813 -1509 
L 813 4891 
L 1344 4891 
z
" transform="scale(0.015625)"/>
      <path id="DejaVuSans-Oblique-78" d="M 3841 3500 
L 2234 1784 
L 3219 0 
L 2559 0 
L 1819 1388 
L 531 0 
L -166 0 
L 1556 1844 
L 641 3500 
L 1300 3500 
L 1972 2234 
L 3144 3500 
L 3841 3500 
z
" transform="scale(0.015625)"/>
      <path id="DejaVuSans-29" d="M 513 4856 
L 1013 4856 
Q 1481 4119 1714 3412 
Q 1947 2706 1947 2009 
Q 1947 1309 1714 600 
Q 1481 -109 1013 -844 
L 513 -844 
Q 928 -128 1133 580 
Q 1338 1288 1338 2009 
Q 1338 2731 1133 3434 
Q 928 4138 513 4856 
z
" transform="scale(0.015625)"/>
      <path id="DejaVuSans-3e" d="M 678 3150 
L 678 3719 
L 4684 2266 
L 4684 1747 
L 678 294 
L 678 863 
L 3897 2003 
L 678 3150 
z
" transform="scale(0.015625)"/>
      <path id="DejaVuSans-30" d="M 2034 4250 
Q 1547 4250 1301 3770 
Q 1056 3291 1056 2328 
Q 1056 1369 1301 889 
Q 1547 409 2034 409 
Q 2525 409 2770 889 
Q 3016 1369 3016 2328 
Q 3016 3291 2770 3770 
Q 2525 4250 2034 4250 
z
M 2034 4750 
Q 2819 4750 3233 4129 
Q 3647 3509 3647 2328 
Q 3647 1150 3233 529 
Q 2819 -91 2034 -91 
Q 1250 -91 836 529 
Q 422 1150 422 2328 
Q 422 3509 836 4129 
Q 1250 4750 2034 4750 
z
" transform="scale(0.015625)"/>
      <path id="DejaVuSans-2e" d="M 684 794 
L 1344 794 
L 1344 0 
L 684 0 
L 684 794 
z
" transform="scale(0.015625)"/>
      <path id="DejaVuSans-35" d="M 691 4666 
L 3169 4666 
L 3169 4134 
L 1269 4134 
L 1269 2991 
Q 1406 3038 1543 3061 
Q 1681 3084 1819 3084 
Q 2600 3084 3056 2656 
Q 3513 2228 3513 1497 
Q 3513 744 3044 326 
Q 2575 -91 1722 -91 
Q 1428 -91 1123 -41 
Q 819 9 494 109 
L 494 744 
Q 775 591 1075 516 
Q 1375 441 1709 441 
Q 2250 441 2565 725 
Q 2881 1009 2881 1497 
Q 2881 1984 2565 2268 
Q 2250 2553 1709 2553 
Q 1456 2553 1204 2497 
Q 953 2441 691 2322 
L 691 4666 
z
" transform="scale(0.015625)"/>
     </defs>
     <use xlink:href="#DejaVuSans-Oblique-50" transform="translate(0 0.578125)"/>
     <use xlink:href="#DejaVuSans-28" transform="translate(60.302734 0.578125)"/>
     <use xlink:href="#DejaVuSans-Oblique-79" transform="translate(99.316406 0.578125)"/>
     <use xlink:href="#DejaVuSans-3d" transform="translate(177.978516 0.578125)"/>
     <use xlink:href="#DejaVuSans-31" transform="translate(281.25 0.578125)"/>
     <use xlink:href="#DejaVuSans-7c" transform="translate(344.873047 0.578125)"/>
     <use xlink:href="#DejaVuSans-Oblique-78" transform="translate(378.564453 0.578125)"/>
     <use xlink:href="#DejaVuSans-29" transform="translate(437.744141 0.578125)"/>
     <use xlink:href="#DejaVuSans-3e" transform="translate(496.240234 0.578125)"/>
     <use xlink:href="#DejaVuSans-30" transform="translate(599.511719 0.578125)"/>
     <use xlink:href="#DejaVuSans-2e" transform="translate(663.134766 0.578125)"/>
     <use xlink:href="#DejaVuSans-35" transform="translate(694.921875 0.578125)"/>
    </g>
   </g>
   <g id="text_14">
    <!-- $P(y=1|x) &lt; 0.5$ -->
    <g style="fill: #262626" transform="translate(222.501731 362.078528) scale(0.12 -0.12)">
     <defs>
      <path id="DejaVuSans-3c" d="M 4684 3150 
L 1459 2003 
L 4684 863 
L 4684 294 
L 678 1747 
L 678 2266 
L 4684 3719 
L 4684 3150 
z
" transform="scale(0.015625)"/>
     </defs>
     <use xlink:href="#DejaVuSans-Oblique-50" transform="translate(0 0.578125)"/>
     <use xlink:href="#DejaVuSans-28" transform="translate(60.302734 0.578125)"/>
     <use xlink:href="#DejaVuSans-Oblique-79" transform="translate(99.316406 0.578125)"/>
     <use xlink:href="#DejaVuSans-3d" transform="translate(177.978516 0.578125)"/>
     <use xlink:href="#DejaVuSans-31" transform="translate(281.25 0.578125)"/>
     <use xlink:href="#DejaVuSans-7c" transform="translate(344.873047 0.578125)"/>
     <use xlink:href="#DejaVuSans-Oblique-78" transform="translate(378.564453 0.578125)"/>
     <use xlink:href="#DejaVuSans-29" transform="translate(437.744141 0.578125)"/>
     <use xlink:href="#DejaVuSans-3c" transform="translate(496.240234 0.578125)"/>
     <use xlink:href="#DejaVuSans-30" transform="translate(599.511719 0.578125)"/>
     <use xlink:href="#DejaVuSans-2e" transform="translate(663.134766 0.578125)"/>
     <use xlink:href="#DejaVuSans-35" transform="translate(694.921875 0.578125)"/>
    </g>
   </g>
   <g id="text_15">
    <!-- Разделение двух распределений -->
    <g style="fill: #262626" transform="translate(246.896875 15.789375) scale(0.12 -0.12)">
     <defs>
      <path id="ArialMT-420" d="M 494 0 
L 494 4581 
L 2222 4581 
Q 2678 4581 2919 4538 
Q 3256 4481 3484 4323 
Q 3713 4166 3852 3881 
Q 3991 3597 3991 3256 
Q 3991 2672 3619 2267 
Q 3247 1863 2275 1863 
L 1100 1863 
L 1100 0 
L 494 0 
z
M 1100 2403 
L 2284 2403 
Q 2872 2403 3119 2622 
Q 3366 2841 3366 3238 
Q 3366 3525 3220 3729 
Q 3075 3934 2838 4000 
Q 2684 4041 2272 4041 
L 1100 4041 
L 1100 2403 
z
" transform="scale(0.015625)"/>
      <path id="ArialMT-430" d="M 2588 409 
Q 2275 144 1986 34 
Q 1697 -75 1366 -75 
Q 819 -75 525 192 
Q 231 459 231 875 
Q 231 1119 342 1320 
Q 453 1522 633 1644 
Q 813 1766 1038 1828 
Q 1203 1872 1538 1913 
Q 2219 1994 2541 2106 
Q 2544 2222 2544 2253 
Q 2544 2597 2384 2738 
Q 2169 2928 1744 2928 
Q 1347 2928 1158 2789 
Q 969 2650 878 2297 
L 328 2372 
Q 403 2725 575 2942 
Q 747 3159 1072 3276 
Q 1397 3394 1825 3394 
Q 2250 3394 2515 3294 
Q 2781 3194 2906 3042 
Q 3031 2891 3081 2659 
Q 3109 2516 3109 2141 
L 3109 1391 
Q 3109 606 3145 398 
Q 3181 191 3288 0 
L 2700 0 
Q 2613 175 2588 409 
z
M 2541 1666 
Q 2234 1541 1622 1453 
Q 1275 1403 1131 1340 
Q 988 1278 909 1158 
Q 831 1038 831 891 
Q 831 666 1001 516 
Q 1172 366 1500 366 
Q 1825 366 2078 508 
Q 2331 650 2450 897 
Q 2541 1088 2541 1459 
L 2541 1666 
z
" transform="scale(0.015625)"/>
      <path id="ArialMT-437" d="M 1156 1500 
L 1156 1941 
Q 1513 1944 1642 1969 
Q 1772 1994 1887 2119 
Q 2003 2244 2003 2431 
Q 2003 2659 1851 2795 
Q 1700 2931 1459 2931 
Q 984 2931 794 2372 
L 259 2459 
Q 509 3394 1466 3394 
Q 1997 3394 2298 3103 
Q 2600 2813 2600 2409 
Q 2600 2003 2206 1763 
Q 2456 1628 2581 1420 
Q 2706 1213 2706 928 
Q 2706 481 2381 203 
Q 2056 -75 1472 -75 
Q 338 -75 156 934 
L 684 1047 
Q 756 728 976 553 
Q 1197 378 1481 378 
Q 1766 378 1955 539 
Q 2144 700 2144 950 
Q 2144 1144 2025 1287 
Q 1906 1431 1772 1467 
Q 1638 1503 1284 1503 
Q 1256 1503 1156 1500 
z
" transform="scale(0.015625)"/>
      <path id="ArialMT-434" d="M 866 3319 
L 3178 3319 
L 3178 463 
L 3538 463 
L 3538 -941 
L 3075 -941 
L 3075 0 
L 463 0 
L 463 -941 
L 0 -941 
L 0 463 
L 297 463 
Q 891 1269 866 3319 
z
M 1334 2853 
Q 1272 1238 834 463 
L 2619 463 
L 2619 2853 
L 1334 2853 
z
" transform="scale(0.015625)"/>
      <path id="ArialMT-435" d="M 2694 1069 
L 3275 997 
Q 3138 488 2766 206 
Q 2394 -75 1816 -75 
Q 1088 -75 661 373 
Q 234 822 234 1631 
Q 234 2469 665 2931 
Q 1097 3394 1784 3394 
Q 2450 3394 2872 2941 
Q 3294 2488 3294 1666 
Q 3294 1616 3291 1516 
L 816 1516 
Q 847 969 1125 678 
Q 1403 388 1819 388 
Q 2128 388 2347 550 
Q 2566 713 2694 1069 
z
M 847 1978 
L 2700 1978 
Q 2663 2397 2488 2606 
Q 2219 2931 1791 2931 
Q 1403 2931 1139 2672 
Q 875 2413 847 1978 
z
" transform="scale(0.015625)"/>
      <path id="ArialMT-43b" d="M 697 3319 
L 3309 3319 
L 3309 0 
L 2750 0 
L 2750 2853 
L 1259 2853 
L 1259 1200 
Q 1259 622 1221 437 
Q 1184 253 1015 115 
Q 847 -22 528 -22 
Q 331 -22 75 3 
L 75 472 
L 322 472 
Q 497 472 572 508 
Q 647 544 672 622 
Q 697 700 697 1131 
L 697 3319 
z
" transform="scale(0.015625)"/>
      <path id="ArialMT-43d" d="M 425 3319 
L 988 3319 
L 988 1938 
L 2547 1938 
L 2547 3319 
L 3109 3319 
L 3109 0 
L 2547 0 
L 2547 1472 
L 988 1472 
L 988 0 
L 425 0 
L 425 3319 
z
" transform="scale(0.015625)"/>
      <path id="ArialMT-438" d="M 422 3319 
L 984 3319 
L 984 788 
L 2544 3319 
L 3150 3319 
L 3150 0 
L 2588 0 
L 2588 2516 
L 1028 0 
L 422 0 
L 422 3319 
z
" transform="scale(0.015625)"/>
      <path id="ArialMT-20" transform="scale(0.015625)"/>
      <path id="ArialMT-432" d="M 425 3319 
L 1722 3319 
Q 2200 3319 2433 3239 
Q 2666 3159 2833 2946 
Q 3000 2734 3000 2438 
Q 3000 2200 2901 2023 
Q 2803 1847 2606 1728 
Q 2841 1650 2995 1436 
Q 3150 1222 3150 928 
Q 3119 456 2812 228 
Q 2506 0 1922 0 
L 425 0 
L 425 3319 
z
M 988 1922 
L 1588 1922 
Q 1947 1922 2081 1959 
Q 2216 1997 2322 2111 
Q 2428 2225 2428 2384 
Q 2428 2647 2242 2750 
Q 2056 2853 1606 2853 
L 988 2853 
L 988 1922 
z
M 988 463 
L 1728 463 
Q 2206 463 2384 573 
Q 2563 684 2572 956 
Q 2572 1116 2469 1252 
Q 2366 1388 2200 1423 
Q 2034 1459 1669 1459 
L 988 1459 
L 988 463 
z
" transform="scale(0.015625)"/>
      <path id="ArialMT-443" d="M 397 -1278 
L 334 -750 
Q 519 -800 656 -800 
Q 844 -800 956 -737 
Q 1069 -675 1141 -563 
Q 1194 -478 1313 -144 
Q 1328 -97 1363 -6 
L 103 3319 
L 709 3319 
L 1400 1397 
Q 1534 1031 1641 628 
Q 1738 1016 1872 1384 
L 2581 3319 
L 3144 3319 
L 1881 -56 
Q 1678 -603 1566 -809 
Q 1416 -1088 1222 -1217 
Q 1028 -1347 759 -1347 
Q 597 -1347 397 -1278 
z
" transform="scale(0.015625)"/>
      <path id="ArialMT-445" d="M 47 0 
L 1259 1725 
L 138 3319 
L 841 3319 
L 1350 2541 
Q 1494 2319 1581 2169 
Q 1719 2375 1834 2534 
L 2394 3319 
L 3066 3319 
L 1919 1756 
L 3153 0 
L 2463 0 
L 1781 1031 
L 1600 1309 
L 728 0 
L 47 0 
z
" transform="scale(0.015625)"/>
      <path id="ArialMT-440" d="M 422 -1272 
L 422 3319 
L 934 3319 
L 934 2888 
Q 1116 3141 1344 3267 
Q 1572 3394 1897 3394 
Q 2322 3394 2647 3175 
Q 2972 2956 3137 2557 
Q 3303 2159 3303 1684 
Q 3303 1175 3120 767 
Q 2938 359 2589 142 
Q 2241 -75 1856 -75 
Q 1575 -75 1351 44 
Q 1128 163 984 344 
L 984 -1272 
L 422 -1272 
z
M 931 1641 
Q 931 1000 1190 694 
Q 1450 388 1819 388 
Q 2194 388 2461 705 
Q 2728 1022 2728 1688 
Q 2728 2322 2467 2637 
Q 2206 2953 1844 2953 
Q 1484 2953 1207 2617 
Q 931 2281 931 1641 
z
" transform="scale(0.015625)"/>
      <path id="ArialMT-441" d="M 2588 1216 
L 3141 1144 
Q 3050 572 2676 248 
Q 2303 -75 1759 -75 
Q 1078 -75 664 370 
Q 250 816 250 1647 
Q 250 2184 428 2587 
Q 606 2991 970 3192 
Q 1334 3394 1763 3394 
Q 2303 3394 2647 3120 
Q 2991 2847 3088 2344 
L 2541 2259 
Q 2463 2594 2264 2762 
Q 2066 2931 1784 2931 
Q 1359 2931 1093 2626 
Q 828 2322 828 1663 
Q 828 994 1084 691 
Q 1341 388 1753 388 
Q 2084 388 2306 591 
Q 2528 794 2588 1216 
z
" transform="scale(0.015625)"/>
      <path id="ArialMT-43f" d="M 425 3319 
L 3044 3319 
L 3044 0 
L 2481 0 
L 2481 2853 
L 988 2853 
L 988 0 
L 425 0 
L 425 3319 
z
" transform="scale(0.015625)"/>
      <path id="ArialMT-439" d="M 422 3319 
L 984 3319 
L 984 788 
L 2544 3319 
L 3150 3319 
L 3150 0 
L 2588 0 
L 2588 2516 
L 1028 0 
L 422 0 
L 422 3319 
z
M 2374 4575 
L 2759 4575 
Q 2712 4184 2473 3975 
Q 2234 3766 1837 3766 
Q 1437 3766 1198 3973 
Q 959 4181 912 4575 
L 1296 4575 
Q 1340 4363 1469 4258 
Q 1599 4153 1818 4153 
Q 2071 4153 2201 4254 
Q 2331 4356 2374 4575 
z
" transform="scale(0.015625)"/>
     </defs>
     <use xlink:href="#ArialMT-420"/>
     <use xlink:href="#ArialMT-430" x="63.324219"/>
     <use xlink:href="#ArialMT-437" x="117.814453"/>
     <use xlink:href="#ArialMT-434" x="161.414062"/>
     <use xlink:href="#ArialMT-435" x="219.763672"/>
     <use xlink:href="#ArialMT-43b" x="272.003906"/>
     <use xlink:href="#ArialMT-435" x="330.353516"/>
     <use xlink:href="#ArialMT-43d" x="385.96875"/>
     <use xlink:href="#ArialMT-438" x="441.193359"/>
     <use xlink:href="#ArialMT-435" x="497.052734"/>
     <use xlink:href="#ArialMT-20" x="552.667969"/>
     <use xlink:href="#ArialMT-434" x="580.451172"/>
     <use xlink:href="#ArialMT-432" x="638.800781"/>
     <use xlink:href="#ArialMT-443" x="689.675781"/>
     <use xlink:href="#ArialMT-445" x="739.675781"/>
     <use xlink:href="#ArialMT-20" x="789.675781"/>
     <use xlink:href="#ArialMT-440" x="817.458984"/>
     <use xlink:href="#ArialMT-430" x="873.074219"/>
     <use xlink:href="#ArialMT-441" x="928.689453"/>
     <use xlink:href="#ArialMT-43f" x="978.689453"/>
     <use xlink:href="#ArialMT-440" x="1032.839844"/>
     <use xlink:href="#ArialMT-435" x="1088.455078"/>
     <use xlink:href="#ArialMT-434" x="1141.820312"/>
     <use xlink:href="#ArialMT-435" x="1200.169922"/>
     <use xlink:href="#ArialMT-43b" x="1252.410156"/>
     <use xlink:href="#ArialMT-435" x="1310.759766"/>
     <use xlink:href="#ArialMT-43d" x="1366.375"/>
     <use xlink:href="#ArialMT-438" x="1421.599609"/>
     <use xlink:href="#ArialMT-439" x="1477.458984"/>
    </g>
   </g>
  </g>
 </g>
 <defs>
  <clipPath id="p231ca71d19">
   <rect x="31.99" y="21.789375" width="613.8" height="332.64"/>
  </clipPath>
 </defs>
</svg>